<svg width="85" height="85" viewBox="0 0 85 85" fill="none" xmlns="http://www.w3.org/2000/svg">
<path d="M71.863 35.1161C61.4071 37.9177 56.1791 39.3185 51.6402 38.3538L51.2668 38.2705C47.4222 37.3734 43.9411 35.3195 41.2953 32.3811L41.1505 32.2183C38.1458 28.7682 36.7454 23.5412 33.9875 13.2487L30.8373 1.49086C33.2616 0.773479 35.7491 0.273385 38.268 0.00012207L41.2932 11.2912C42.7263 16.6396 43.6891 20.2104 44.6495 22.8969C45.5012 25.2794 46.1749 26.4304 46.7569 27.135L60.3391 3.61005C61.4997 4.14603 62.6463 4.73898 63.7751 5.39067C64.854 6.01359 65.8946 6.67748 66.8966 7.3786L53.2768 30.9687C54.18 31.1498 55.5205 31.191 58.1767 30.7069C60.9835 30.1953 64.5572 29.2438 69.9058 27.8106L81.1969 24.7852C82.2198 27.1033 83.0308 29.5074 83.6217 31.9656L71.863 35.1161Z" fill="#008AFF"/>
<path d="M33.6853 70.6111C36.4869 60.1553 37.8878 54.9273 40.9928 51.4789L41.2516 51.1971C43.9508 48.3161 47.4701 46.3283 51.3377 45.5062L51.5511 45.4623C56.0413 44.5852 61.2682 45.9859 71.5607 48.7437L83.3184 51.8944C82.7275 54.3527 81.9169 56.7569 80.8941 59.075L69.6032 56.0494C64.2547 54.6163 60.681 53.6647 57.8741 53.1531C55.3851 52.6995 54.0513 52.7074 53.1501 52.8591L66.7323 76.3841C65.6878 77.1213 64.601 77.8178 63.4722 78.4695C62.3933 79.0924 61.298 79.6617 60.1899 80.1788L46.5701 56.5887C45.9617 57.2804 45.2558 58.4207 44.3469 60.9631C43.3865 63.6496 42.4237 67.2203 40.9906 72.5688L37.9651 83.86C35.4462 83.5868 32.9586 83.0871 30.5343 82.3697L33.6853 70.6111Z" fill="black"/>
<path d="M22.0352 19.8009C29.6894 27.4551 33.5165 31.2823 34.9505 35.6955L35.065 36.0605C36.2105 39.8386 36.1723 43.8802 34.9505 47.6407L34.8819 47.8475C33.3963 52.1747 29.5698 56.0011 22.0352 63.5357L13.4277 72.1428C11.5943 70.402 9.91749 68.4978 8.42136 66.453L16.6871 58.1876C20.6024 54.2722 23.2134 51.653 25.0598 49.478C26.6972 47.5493 27.3572 46.3902 27.6764 45.5339H0.512132C0.395996 44.2608 0.336182 42.9713 0.336182 41.6679C0.336182 40.4221 0.390822 39.189 0.497032 37.9707H27.7365C27.4418 37.0979 26.8072 35.9164 25.0598 33.8582C23.2134 31.6832 20.6025 29.064 16.6871 25.1486L8.42136 16.8829C9.91749 14.8381 11.594 12.9336 13.4274 11.1927L22.0352 19.8009Z" fill="black"/>
</svg>
